<?xml version="1.0" encoding="utf-8"?>
<!-- Generator: Adobe Illustrator 22.0.1, SVG Export Plug-In . SVG Version: 6.00 Build 0)  -->
<svg version="1.1" id="Layer_1" xmlns="http://www.w3.org/2000/svg" xmlns:xlink="http://www.w3.org/1999/xlink" x="0px" y="0px"
	 viewBox="0 0 640 120" style="enable-background:new 0 0 640 120;" xml:space="preserve">
<style type="text/css">
	.st0{fill:#1D1D1B;}
</style>
<g>
	<path class="st0" d="M114,50.4c-0.3-0.4-0.8-0.6-1.4-0.6c0,0,0,0,0,0l-24.3,1.3c-3.2-15.5-15.1-27.9-30.4-31.7l2.2-15
		c0.1-0.7,0.1-2.1-0.4-2.6c-0.5-0.6-1.3-0.7-1.8-0.7c-0.1,0-0.3,0-0.4,0l-2.5,0.1c-0.3,0-1.7,0.1-2.6,0.8c-0.9,0.6-1.6,2.1-1.8,2.4
		l-6.3,14c-19.6,1.8-35.1,17.4-37,37l-4.4,0.2c-1.1,0.1-2.1,1-2.3,2.1L0,62.3c-0.1,0.6,0.1,1.1,0.4,1.5c0.3,0.4,0.8,0.6,1.4,0.6
		c0,0,0,0,0,0l5.6-0.3c2.4,20.8,19.8,36.4,40.8,36.4c1.4,0,2.8-0.1,4.2-0.2l-2.1,16.4c-0.1,0.6,0.1,1.1,0.5,1.5
		c0.4,0.4,0.9,0.6,1.5,0.6h4.5c1.1,0,2.1-0.9,2.3-2l2.4-18.6C77.9,92.7,89,77.2,89.2,59.7l22.4-1.2c1.1-0.1,2.1-1,2.3-2.1l0.6-4.5
		C114.5,51.3,114.4,50.8,114,50.4 M80.5,60.2c-0.3,11.9-7.2,22.9-17.9,28.3l3.6-27.5L80.5,60.2z M79.6,51.5L53.1,53L56.7,28
		C67.8,31.1,76.8,40.3,79.6,51.5z M16.1,55c1.8-13,11.3-23.8,24-27.1L28.2,54.3L16.1,55z M24.3,63.2l-0.9,2.1h0c0,0,0,0,0,0
		l-2.2,4.8c-0.2,0.6-0.2,1.1,0,1.5c0.3,0.4,0.7,0.6,1.3,0.6c0,0,0,0,0,0L28,72c1.1-0.1,2.2-0.8,2.6-1.8l3.3-7.5l9.2-0.5l-1,6.7
		c-0.1,0.6,0.1,1.1,0.4,1.5c0.3,0.4,0.8,0.6,1.4,0.6c0,0,0,0,0,0l4.7-0.2c1.1-0.1,2.1-1,2.3-2.1l1-7l5.7-0.3l-4,30
		c-1.8,0.3-3.6,0.5-5.4,0.5c-16.3,0-30-12.1-32.1-28.2L24.3,63.2z M37.7,53.8l9.7-22.2l-3.1,21.9L37.7,53.8z"/>
	<path class="st0" d="M159.9,92H157c-2.2,0-3.4-1-3.9-3.1l-2.9-13.5h-14.6l-2.9,13.5c-0.5,2.1-1.7,3.1-3.8,3.1h-3
		c-2.5,0-3.7-1.4-3.1-3.9l12.6-57.8c0.5-2,1.7-3.1,3.9-3.1h7.1c2.2,0,3.4,1.1,3.9,3.1l12.7,57.8C163.6,90.6,162.4,92,159.9,92
		 M148.3,66.6l-1-4.9c-3.1-14.8-3.9-20.1-4.3-24.7c-0.5,4.6-1.3,10.1-4.4,24.7l-1,4.9H148.3z"/>
	<path class="st0" d="M183.9,67.6v-2.1c0-2.5,1-3.3,2.8-3.6l1.1-0.1c4.4-0.3,5.7-2.4,5.7-6.3V43.2c0-4.3-2.2-6.9-7.6-6.9h-6.5v52.3
		c0,2.3-1.2,3.5-3.5,3.5h-3.2c-2.3,0-3.5-1.2-3.5-3.5V30.8c0-2.3,1.2-3.6,3.5-3.6h13.2c12.2,0,18,6.7,18,15.9v12.2
		c0,9.8-5.3,15.8-15.1,15.8h-1.2C185.3,71,183.9,69.8,183.9,67.6"/>
	<path class="st0" d="M240.6,92h-2.9c-2.2,0-3.4-1-3.9-3.1l-2.9-13.5h-14.6l-2.8,13.5c-0.5,2.1-1.7,3.1-3.8,3.1h-3
		c-2.5,0-3.7-1.4-3.1-3.9l12.6-57.8c0.5-2,1.7-3.1,3.9-3.1h7.1c2.2,0,3.4,1.1,3.9,3.1l12.7,57.8C244.3,90.6,243.1,92,240.6,92
		 M229,66.6l-1-4.9c-3.1-14.8-3.9-20.1-4.3-24.7c-0.5,4.6-1.3,10.1-4.4,24.7l-1,4.9H229z"/>
	<path class="st0" d="M281.6,92h-3.7c-2.2,0-3.6-1-4.4-3.2l-7.1-21.2h-6.6v20.9c0,2.3-1.3,3.5-3.6,3.5H253c-2.3,0-3.5-1.2-3.5-3.5
		V30.8c0-2.3,1.2-3.6,3.5-3.6h13.2c12.2,0,18,6.7,18,15.9v8.7c0,6.3-2.6,11.2-8,13.9l8.1,22.3C285.3,90.3,284.1,92,281.6,92
		 M259.8,58.6h6.5c5.5,0,7.7-2.7,7.7-6.8v-8.6c0-4.3-2.2-6.9-7.7-6.9h-6.5V58.6z"/>
	<path class="st0" d="M326.3,92h-2.9c-2.2,0-3.4-1-3.9-3.1l-2.9-13.5h-14.5l-2.9,13.5c-0.5,2.1-1.7,3.1-3.8,3.1h-3
		c-2.5,0-3.7-1.4-3.1-3.9l12.6-57.8c0.5-2,1.7-3.1,3.9-3.1h7.1c2.2,0,3.4,1.1,3.9,3.1l12.7,57.8C330.1,90.6,328.8,92,326.3,92
		 M314.8,66.6l-1-4.9c-3.1-14.8-3.9-20.1-4.3-24.7c-0.5,4.6-1.3,10.1-4.4,24.7l-1,4.9H314.8z"/>
	<path class="st0" d="M370,92h-2.9c-2.2,0-3.4-1-3.9-3.1l-2.9-13.5h-14.5l-2.9,13.5c-0.5,2.1-1.7,3.1-3.8,3.1h-3
		c-2.5,0-3.7-1.4-3.1-3.9l12.7-57.8c0.5-2,1.7-3.1,3.9-3.1h7.1c2.2,0,3.4,1.1,3.9,3.1l12.7,57.8C373.7,90.6,372.5,92,370,92
		 M358.4,66.6l-1-4.9c-3.1-14.8-3.9-20.1-4.3-24.7c-0.5,4.6-1.3,10.1-4.4,24.7l-1,4.9H358.4z"/>
	<path class="st0" d="M414.6,43.1v33.1c0,9.3-5.7,15.9-17.9,15.9h-14.4c-2.3,0-3.5-1.2-3.5-3.5V30.8c0-2.3,1.2-3.6,3.5-3.6h14.4
		C408.9,27.2,414.6,33.8,414.6,43.1 M404.4,76.2v-33c0-4.3-2.2-6.9-7.6-6.9h-7.6v46.9h7.6C402.2,83.1,404.4,80.3,404.4,76.2z"/>
	<path class="st0" d="M423.1,88.5V30.8c0-2.3,1.2-3.6,3.5-3.6h3.2c2.3,0,3.6,1.3,3.6,3.6v57.7c0,2.3-1.3,3.5-3.6,3.5h-3.2
		C424.3,92,423.1,90.8,423.1,88.5"/>
	<path class="st0" d="M473.2,30.8v1.8c0,2.3-1.3,3.6-3.6,3.6h-8.4v52.3c0,2.3-1.2,3.5-3.5,3.5h-3.3c-2.3,0-3.5-1.2-3.5-3.5V36.2
		h-8.5c-2.3,0-3.5-1.3-3.5-3.6v-1.8c0-2.3,1.2-3.6,3.5-3.6h27.2C471.8,27.2,473.2,28.5,473.2,30.8"/>
	<path class="st0" d="M505.5,92h-23.3c-2.3,0-3.5-1.2-3.5-3.5V30.8c0-2.3,1.2-3.6,3.5-3.6h23.3c2.3,0,3.5,1.3,3.5,3.6v1.8
		c0,2.3-1.2,3.6-3.5,3.6H489v18.5h13.9c2.3,0,3.5,1.3,3.5,3.6v1.8c0,2.3-1.2,3.6-3.5,3.6H489v19.3h16.5c2.3,0,3.5,1.2,3.5,3.5v1.9
		C509,90.8,507.8,92,505.5,92"/>
	<path class="st0" d="M554.2,30.8v57.7c0,2.3-1.3,3.5-3.6,3.5h-3.3c-2.3,0-3.5-1.2-3.5-3.5V64.7h-16.9v23.8c0,2.3-1.3,3.5-3.6,3.5
		H520c-2.3,0-3.5-1.2-3.5-3.5V30.8c0-2.3,1.2-3.6,3.5-3.6h3.2c2.3,0,3.6,1.3,3.6,3.6v24.8h16.9V30.8c0-2.3,1.2-3.6,3.5-3.6h3.3
		C552.8,27.2,554.2,28.5,554.2,30.8"/>
	<path class="st0" d="M596.8,92h-2.9c-2.2,0-3.4-1-3.9-3.1l-2.9-13.5h-14.5l-2.9,13.5c-0.5,2.1-1.7,3.1-3.8,3.1h-3
		c-2.5,0-3.7-1.4-3.1-3.9l12.6-57.8c0.5-2,1.7-3.1,3.9-3.1h7.1c2.2,0,3.4,1.1,3.9,3.1l12.7,57.8C600.5,90.6,599.3,92,596.8,92
		 M585.2,66.6l-1-4.9c-3.1-14.8-3.9-20.1-4.3-24.7c-0.5,4.6-1.3,10.1-4.4,24.7l-1,4.9H585.2z"/>
	<path class="st0" d="M604.5,44.6v-2.5c0-9.2,5.3-15.9,17.5-15.9c12.2,0,17.6,6.7,17.6,15.9V43c0,2.3-1.3,3.5-3.6,3.5h-3.2
		c-2.3,0-3.5-1.2-3.5-3.4v-0.7c0-4.2-1.8-6.8-7.2-6.8c-5.4,0-7.1,2.7-7.1,6.9v1.4c0,4.1,1.8,6.4,5.8,8.8l10.6,6.9
		c5.7,3.7,8.8,8.1,8.8,14.9v2.6c-0.1,9.3-5.9,15.8-18,15.8c-12.2,0-17.9-6.6-17.9-15.9V76c0-2.3,1.2-3.5,3.5-3.5h3.2
		c2.3,0,3.6,1.1,3.6,3.4v0.9c0,4.2,2.1,6.9,7.5,6.9c5.4,0,7.6-2.8,7.6-6.9v-1.3c0-4-1.5-6-5.4-8.6L613.7,60
		C608.2,56.5,604.5,51.3,604.5,44.6"/>
</g>
</svg>
