<?xml version="1.0" encoding="utf-8"?>
<!-- Generator: Adobe Illustrator 22.0.1, SVG Export Plug-In . SVG Version: 6.00 Build 0)  -->
<svg version="1.1" id="Layer_1" xmlns="http://www.w3.org/2000/svg" xmlns:xlink="http://www.w3.org/1999/xlink" x="0px" y="0px"
	 viewBox="0 0 325 325" style="enable-background:new 0 0 325 325;" xml:space="preserve">
<style type="text/css">
	.st0{clip-path:url(#SVGID_2_);fill:#4280BC;}
	.st1{clip-path:url(#SVGID_2_);fill:#F5BB36;}
	.st2{clip-path:url(#SVGID_2_);fill:#020A0A;}
</style>
<g>
	<defs>
		<rect id="SVGID_1_" x="2.5" y="2.6" width="320" height="319.7"/>
	</defs>
	<clipPath id="SVGID_2_">
		<use xlink:href="#SVGID_1_"  style="overflow:visible;"/>
	</clipPath>
	<path class="st0" d="M162.5,34.1c-70.9,0-128.4,57.5-128.4,128.4v1.1c0,1.6,0,3.3,0.1,5c0,0.6,0,1.2,0.1,1.8c0,1.2,0.1,2.4,0.3,3.5
		c0.1,1.7,0.3,3.4,0.5,5c0.3,2.2,0.6,4.3,1,6.4c0.2,1.2,0.4,2.5,0.7,3.8c6.2,29.7,22.8,55.6,45.7,73.9c1,0.8,1.9,1.6,2.9,2.2
		c0.8,0.6,1.5,1.1,2.3,1.7c1.2,0.8,2.3,1.6,3.5,2.4c0.2,0.1,0.3,0.2,0.4,0.3c1.8,1.2,3.7,2.4,5.6,3.5c1.1,0.7,2.2,1.3,3.4,2
		c1.1,0.6,2.3,1.2,3.4,1.8c1.8,1,3.7,1.8,5.6,2.7c1.8,0.8,3.6,1.6,5.4,2.3c0.1,0.1,0.2,0.1,0.4,0.2c1.2,0.5,2.5,1,3.8,1.4h0.1
		c1.6,0.6,3.4,1.2,5,1.7c0.5,0.2,1,0.3,1.4,0.4c1.8,0.6,3.7,1.1,5.6,1.5c4.1,1,8.2,1.8,12.3,2.4c1.6,0.2,3.3,0.5,4.9,0.6
		c0.3,0,0.6,0.1,0.8,0.1c0.5,0.1,1,0.1,1.6,0.2c1.6,0.2,3.3,0.3,5,0.4h0.3c2.1,0.1,4.2,0.2,6.3,0.2s4.2,0,6.3-0.2h0.3
		c1.7-0.1,3.4-0.2,5.1-0.4c0.5,0,1-0.1,1.5-0.2c0.2,0,0.4,0,0.5,0c1.8-0.2,3.5-0.4,5.2-0.7c4.2-0.6,8.3-1.4,12.3-2.4
		c2-0.5,4-1,6-1.7c0.3-0.1,0.6-0.2,1-0.3c1.7-0.5,3.4-1.1,5-1.7c1.6-0.6,3.2-1.2,4.8-1.8c0.7-0.3,1.4-0.6,2-0.8c1-0.4,2-0.8,2.9-1.3
		c1-0.4,1.8-0.8,2.8-1.3c0.9-0.4,1.9-0.9,2.8-1.4c0.9-0.5,1.8-1,2.8-1.4c0.9-0.4,1.8-1,2.7-1.5c1-0.6,2-1.2,3-1.8
		c29.7-18.2,51.4-48.1,58.8-83.3c0.2-1.2,0.5-2.4,0.7-3.6c0.7-4.1,1.2-8.2,1.6-12.4c0.1-1.4,0.2-2.8,0.3-4.3c0.1-1.6,0.1-3.3,0.1-5
		v-1.1C290.9,91.6,233.4,34.1,162.5,34.1 M162.8,227.6c-68.8,0-124.7-28.9-124.7-64.5c0-35.6,55.8-64.5,124.7-64.5
		s124.7,28.9,124.7,64.5C287.5,198.7,231.6,227.6,162.8,227.6"/>
	<path class="st1" d="M290.9,163.1v0.5c0,1.6,0,3.3-0.1,5c0,1.4-0.2,2.9-0.3,4.3c-0.3,4.2-0.8,8.3-1.6,12.4
		c-1.6,9.1-4.2,18.1-7.7,26.8c-6.5,15.5-15.9,29.6-27.8,41.5c-8,8-17.1,14.9-26.9,20.4c-0.9,0.6-1.8,1.1-2.7,1.5
		c-0.9,0.5-1.8,1-2.8,1.4c-0.9,0.5-1.9,1-2.8,1.4c-0.9,0.4-1.8,0.9-2.8,1.3c-1,0.5-1.9,0.9-2.9,1.3c-0.3,0.2-0.6,0.3-0.9,0.4
		c-0.4,0.2-0.8,0.3-1.2,0.4c-1.6,0.6-3.2,1.2-4.8,1.8c-1.6,0.6-3.4,1.2-5,1.7c-0.3,0.1-0.6,0.2-1,0.3c-2,0.6-4,1.2-6,1.7
		c-4.1,1-8.2,1.8-12.3,2.4c-1.7,0.3-3.4,0.5-5.2,0.7c-0.2,0-0.3,0-0.5,0c-0.5,0.1-1,0.1-1.5,0.2c-1.7,0.2-3.4,0.3-5.1,0.4h-0.3
		c-2.1,0.1-4.2,0.2-6.3,0.2s-4.2,0-6.3-0.2h-0.3c-1.7-0.1-3.4-0.2-5-0.4c-0.5,0-1-0.1-1.6-0.2c-0.3,0-0.6,0-0.8-0.1
		c-1.6-0.2-3.3-0.4-4.9-0.6c-4.2-0.6-8.3-1.4-12.3-2.4c-1.8-0.4-3.7-1-5.6-1.5c-0.4-0.1-0.9-0.3-1.4-0.4c-1.7-0.5-3.4-1-5-1.7h-0.1
		c-1.3-0.4-2.6-0.9-3.8-1.4c-0.2,0-0.3-0.1-0.4-0.2c-0.6-0.2-1.1-0.4-1.7-0.6c-1.2-0.5-2.5-1-3.7-1.6c-1.9-0.8-3.8-1.7-5.6-2.7
		c-2.3-1.2-4.6-2.5-6.8-3.8c-1.9-1.1-3.8-2.3-5.6-3.5c-0.1-0.1-0.3-0.2-0.4-0.3c-7-4.6-13.5-9.8-19.5-15.8
		c-11.9-11.9-21.4-26-27.8-41.5c-3.6-8.6-6.2-17.6-7.8-26.8c-0.4-2.1-0.7-4.2-1-6.4c-0.2-1.7-0.4-3.3-0.5-5
		c-0.2-1.2-0.2-2.3-0.3-3.5c-0.1-0.6-0.1-1.2-0.1-1.8c-0.1-1.6-0.1-3.3-0.1-5v-0.5h4c0,35.6,55.8,64.5,124.7,64.5
		s124.7-28.9,124.7-64.5H290.9z"/>
	<polygon class="st2" points="122.7,195.1 156.3,162 122.7,129 114.9,136.5 135.7,157 80.9,157 80.9,167.1 135.7,167.1 114.9,187.6 
		122.7,195.1 	"/>
	<polygon class="st2" points="208.8,195.1 242.5,162 208.8,129 201,136.5 221.8,157 167,157 167,167.1 221.8,167.1 201,187.5 	"/>
	<polygon class="st2" points="35.6,87.2 33,91.6 41,96.2 39,99.8 20.3,89.1 22.4,85.5 29.9,89.8 32.4,85.3 24.9,81 27,77.4 
		45.7,88.1 43.6,91.7 	"/>
	<polygon class="st2" points="30.4,72.3 36.5,64 39.4,66.2 35.8,71.1 39.9,74.1 43.1,69.6 46.1,71.7 42.8,76.2 47.3,79.5 50.9,74.5 
		53.9,76.7 47.8,85 30.4,72.3 	"/>
	<polygon class="st2" points="62.7,66.5 55.8,74.4 39.7,60.1 42.4,57 55.8,68.8 59.9,64.1 	"/>
	<path class="st2" d="M49.7,49.1l4.8-4.4c2.8-2.6,6.1-2.7,8.7,0.2l0.9,1c2.8,3,2.4,6.3-0.3,8.9L62,56.4l5.3,5.7l-3,2.8L49.7,49.1z
		 M55.2,48.9l4.4,4.8l1.6-1.5c1.2-1.1,1.3-2.3-0.2-3.9l-0.5-0.5c-1.4-1.5-2.6-1.4-3.7-0.3L55.2,48.9L55.2,48.9z"/>
	
		<rect x="68.8" y="34.1" transform="matrix(0.7886 -0.6149 0.6149 0.7886 -12.5763 53.0949)" class="st2" width="4.2" height="21.5"/>
	<polygon class="st2" points="93.4,42.4 88.1,45.9 75,32.1 85.1,47.8 82.1,49.7 70.4,31.6 75.8,28.2 88.7,41.7 78.8,26.3 81.8,24.3 
		93.4,42.4 	"/>
	<path class="st2" d="M103.7,24.5l5,10.3l-3,1.4l-1-2c0,1.9-1,3.3-2.8,4.2c-3.3,1.6-6.3,0.3-8.5-4.2l-3.2-6.6
		c-2.2-4.5-0.9-7.8,2.8-9.6c3.8-1.8,7.1-0.7,9.3,3.8l0.4,0.9l-3.7,1.8l-0.4-0.9c-1.2-2.5-2.5-2.9-3.9-2.2c-1.4,0.7-1.9,1.9-0.7,4.5
		l3.2,6.7c1.2,2.5,2.5,3,3.9,2.2c1.4-0.7,1.9-2,0.8-4.3l-0.5-1l-2.7,1.3l-1.5-3.2L103.7,24.5L103.7,24.5z"/>
	<polygon class="st2" points="110.5,11.2 121.9,7.7 122.9,11.3 119.3,12.4 124.4,29.4 120.4,30.7 115.2,13.6 111.6,14.7 	"/>
	<path class="st2" d="M128.6,20.8l-1.4-7.2c-0.9-4.9,1.1-7.8,5.2-8.6c4.1-0.8,7.1,1.2,8,6.1l1.4,7.2c0.9,4.9-1.1,7.8-5.2,8.6
		C132.5,27.7,129.6,25.8,128.6,20.8L128.6,20.8z M137.8,19.2l-1.4-7.3c-0.5-2.8-1.6-3.5-3.2-3.2c-1.5,0.3-2.4,1.4-1.8,4.1l1.4,7.3
		c0.5,2.8,1.6,3.5,3.2,3.2C137.5,23,138.3,21.9,137.8,19.2"/>
	<polygon class="st2" points="163.8,24 153.4,24.4 152.7,2.9 156.8,2.7 157.4,20.6 163.7,20.4 163.8,24 	"/>
	<polygon class="st2" points="167.4,2.6 177.7,3.2 177.5,6.9 171.3,6.5 171,11.5 176.6,11.9 176.4,15.5 170.8,15.2 170.5,20.7 
		176.6,21 176.4,24.7 166.1,24.1 	"/>
	<path class="st2" d="M185.3,4.2l6.3,1l0.4,21.9l-4-0.7V22l-4.5-0.7l-1.4,4.2l-4-0.7L185.3,4.2L185.3,4.2z M187.9,18.3V7.8l-3.3,10
		L187.9,18.3z"/>
	<polygon class="st2" points="202.3,29.9 196.2,28.2 198.1,6.5 202.1,7.5 200.1,26 207.9,9.1 211.8,10.2 	"/>
	<polygon class="st2" points="216,11.7 225.6,15.4 224.3,18.9 218.5,16.6 216.7,21.3 221.9,23.3 220.6,26.7 215.4,24.7 213.4,29.8 
		219.1,32.1 217.8,35.5 208.2,31.7 216,11.7 	"/>
	
		<rect x="240.6" y="26.6" transform="matrix(0.5427 -0.8399 0.8399 0.5427 77.326 221.2912)" class="st2" width="2.6" height="26.1"/>
	<path class="st2" d="M262,61l5.4,5.4l-2.6,2.6l-8.6-8.6l1.3-1.3c4.7-4.7,12.2-0.9,15.4-4.1c1.3-1.3,1.3-2.4,0.5-3.2
		c-0.8-0.8-1.8-0.8-3.3,0.6l-1.1,1.1l-2.8-2.8l1.3-1.3c2.9-2.9,6.2-2.6,8.6-0.2c2.3,2.3,2.7,5.6-0.2,8.5
		C271.7,61.8,265.4,59.2,262,61L262,61z"/>
	<path class="st2" d="M286.9,62l3.9,4.9L279.2,76l1.4,1.8l-2.9,2.3l-1.4-1.8l-2.5,2l-2.5-3.2l2.5-2l-4.3-5.5l3.2-2.5L286.9,62z
		 M276.7,72.8l8.8-6.9l-11,4L276.7,72.8L276.7,72.8z"/>
	<polygon class="st2" points="276.7,84.1 298.6,78.6 300.3,81.1 278.3,86.6 	"/>
	<path class="st2" d="M287,102l-1.8-3.7l0.9-0.4c7.1-3.6,11.9-3.2,17.3-3.1l-3.5-7l3.3-1.6l5,10l-4.5,2.2c-5.4,0-8.8-0.3-15.2,2.9
		L287,102L287,102z"/>
	<polygon class="st2" points="304.6,122.3 303.1,117.3 294.3,120 293.1,116 313.7,109.8 314.9,113.8 306.6,116.3 308.1,121.2 
		316.4,118.7 317.6,122.7 297,128.9 295.8,124.9 	"/>
	<polygon class="st2" points="318.9,128.7 320.8,138.9 317.2,139.5 316.1,133.4 311.1,134.4 312.2,139.9 308.5,140.5 307.5,135 
		302.1,136 303.2,142.1 299.6,142.7 297.8,132.6 318.9,128.7 	"/>
	<polygon class="st2" points="300.9,156.1 300,145.7 321.4,143.9 321.8,148 304,149.6 304.6,155.8 	"/>
	<path class="st2" d="M322.5,158.8l-0.1,6.5c-0.1,3.8-2.2,6.2-6.2,6.2l-1.3,0c-4.1-0.1-6.3-2.6-6.2-6.4l0-2.4l-7.8-0.1l0.1-4.1
		L322.5,158.8L322.5,158.8z M318.8,162.8l-6.5-0.1l0,2.2c0,1.6,0.8,2.5,2.9,2.6l0.7,0c2,0,2.8-0.9,2.8-2.5L318.8,162.8L318.8,162.8z
		"/>
	<polygon class="st2" points="299.3,184.3 300.5,174 321.9,176.4 321.4,180.5 303.7,178.5 303,184.8 	"/>
	
		<rect x="306.9" y="179.8" transform="matrix(0.1874 -0.9823 0.9823 0.1874 63.9154 458.4286)" class="st2" width="4.2" height="21.5"/>
	<polygon class="st2" points="293.7,207.2 295.4,201.1 314.3,202.9 296.4,197.7 297.4,194.3 318.1,200.2 316.3,206.3 297.7,204.7 
		315.3,209.8 314.4,213.2 293.7,207.3 	"/>
	<polygon class="st2" points="312.2,219 308.3,228.5 304.9,227.1 307.3,221.4 302.7,219.5 300.5,224.7 297.1,223.3 299.3,218.1 
		294.2,216 291.8,221.7 288.4,220.3 292.3,210.8 312.2,219 	"/>
	<polygon class="st2" points="302.5,240 297.3,248.7 294.2,246.8 297.2,241.6 292.5,238.8 289.8,243.3 286.6,241.4 289.3,236.9 
		281.9,232.6 284,229 302.5,239.9 	"/>
	<path class="st2" d="M283.3,244l5.8,4.4c4,3,4.4,6.5,2,9.9c-2.5,3.4-6,3.9-10,1l-5.8-4.4c-4-3-4.4-6.5-2-9.9
		C275.8,241.6,279.3,241,283.3,244 M277.6,251.4l6,4.5c2.3,1.7,3.6,1.4,4.5,0.2c0.9-1.3,0.8-2.6-1.4-4.3l-6-4.5
		c-2.3-1.7-3.6-1.5-4.5-0.2C275.2,248.4,275.4,249.7,277.6,251.4"/>
	<path class="st2" d="M282.8,268l-4.7,5c-2.5,2.6-5.7,3.2-8.3,0.6l-0.6-0.6c-2.1-2-2.2-4.5-1-6.7l-10.4-3.3l3.3-3.4l10.9,3.8
		l-7.7-7.3l2.8-3L282.8,268L282.8,268z M277.4,268.5l-4.2-4l-1.5,1.6c-1.1,1.1-1.2,2.4,0.3,3.8l0.3,0.3c1.4,1.3,2.5,1,3.6-0.1
		L277.4,268.5L277.4,268.5z"/>
	<path class="st2" d="M260.6,288.8l-8.9-11.9c-1.5-2-2.7-2.1-4-1.2c-1.2,0.9-1.4,2.2,0.1,4.1l8.9,11.9l-3.3,2.5l-8.9-11.8
		c-2.9-3.8-2.3-7.2,1-9.6c3.3-2.5,6.7-2.1,9.5,1.7l8.9,11.8L260.6,288.8L260.6,288.8z"/>
	<polygon class="st2" points="239.1,290.1 233.8,281.1 237.4,279.1 248.2,297.6 244.7,299.7 239.5,290.8 240.8,302 237,304.2 
		236.1,293 225.9,285.8 230,283.4 239.1,290.1 	"/>
	<path class="st2" d="M232.7,306.3l-6.2,2.8c-3.3,1.5-6.5,0.7-7.9-2.6l-0.3-0.8c-1.2-2.7-0.4-5,1.6-6.6l-8.3-7l4.3-1.9l8.6,7.7
		l-4.3-9.7l3.8-1.7L232.7,306.3L232.7,306.3z M227.5,304.7l-2.3-5.3l-2,0.9c-1.4,0.6-2,1.8-1.2,3.6l0.2,0.3c0.8,1.7,1.9,1.9,3.3,1.3
		L227.5,304.7L227.5,304.7z"/>
	<path class="st2" d="M213.3,314.2l-6.1,1.9l-10.1-19.4l3.9-1.2l2,3.9l4.4-1.4l-0.6-4.4l3.9-1.2L213.3,314.2L213.3,314.2z
		 M204.6,302.7l4.7,9.4l-1.5-10.4L204.6,302.7L204.6,302.7z"/>
	
		<rect x="193.1" y="297.3" transform="matrix(0.9759 -0.218 0.218 0.9759 -62.465 49.9716)" class="st2" width="4.2" height="21.5"/>
	<polygon class="st2" points="173.8,300.6 180.2,299.8 186.1,317.8 183.7,299.3 187.2,298.8 190,320.2 183.7,321 177.8,303.2 
		180.1,321.5 176.6,321.9 	"/>
	
		<rect x="166.4" y="300.8" transform="matrix(0.9992 -3.899485e-02 3.899485e-02 0.9992 -12.0192 6.8064)" class="st2" width="4.2" height="21.5"/>
	<path class="st2" d="M159,322.4l-6.4-0.3l-3-21.6l4.1,0.2l0.5,4.4l4.6,0.2l0.9-4.3l4.1,0.2L159,322.4L159,322.4z M154.7,308.6
		l1.3,10.4l2.1-10.3L154.7,308.6L154.7,308.6z"/>
	<polygon class="st2" points="134,298.1 140.3,299.1 140.9,318.1 143.8,299.7 147.3,300.2 143.9,321.5 137.6,320.5 137,301.7 
		134.1,319.9 130.6,319.3 134,298.1 	"/>
	<path class="st2" d="M119.3,316.8c-3.1-0.9-5.1-3.3-4.1-7.1l0.4-1.4l3.8,1.1l-0.4,1.4c-0.4,1.5,0.1,2.4,1.2,2.7
		c1,0.3,1.9-0.2,2.2-1.3c0.4-1.4-0.2-2.3-1.2-3.6l-1.9-2.4c-1.4-1.8-2.4-3.9-1.6-6.6c1.1-3.8,4.3-5,7.5-4.1c3.2,0.9,5.3,3.6,4.3,7.2
		l-0.5,1.7l-3.9-1.1l0.4-1.5c0.4-1.4-0.2-2.6-1.4-2.9c-1.2-0.3-2.2,0.2-2.5,1.3c-0.4,1.5,0.2,2.6,1.3,3.9l1.8,2.4
		c1.4,1.8,2.3,3.8,1.5,6.6C125.4,316.9,122.4,317.7,119.3,316.8L119.3,316.8z"/>
	<path class="st2" d="M99.5,309.5l-5.8-2.6l5.3-21.2l3.7,1.7l-1.2,4.3l4.2,1.9l2.5-3.7l3.7,1.7L99.5,309.5L99.5,309.5z M100.7,295.2
		l-2.7,10.2l5.8-8.8L100.7,295.2z"/>
	<polygon class="st2" points="86.3,303.1 77.5,298 79.4,294.9 84.6,297.9 87.4,293.1 82.9,290.5 84.7,287.3 89.2,289.9 93.5,282.5 
		97.1,284.5 86.3,303.1 	"/>
	<polygon class="st2" points="73.7,295.5 65.5,289.7 67.6,286.7 72.5,290.2 75.7,285.6 71.4,282.6 73.6,279.6 77.8,282.6 
		82.8,275.6 86.2,278 73.7,295.5 	"/>
	<polygon class="st2" points="61.8,286.8 54,280.1 56.4,277.3 61.1,281.3 64.4,277.5 60.1,273.9 62.5,271.1 66.8,274.8 70.4,270.6 
		65.7,266.6 68.1,263.8 75.9,270.5 61.8,286.8 	"/>
	<path class="st2" d="M50.4,258l1.2-1.1c3.6-3.4,7.2-3.2,10-0.2c2.9,3.1,2.8,6.6-0.8,10l-5.3,5c-3.6,3.4-7.2,3.2-10,0.2
		c-2.9-3.1-2.8-6.6,0.8-10l1-0.9l2.8,3l-1,1c-2.1,1.9-2.1,3.3-1,4.4c1.1,1.1,2.4,1.3,4.5-0.7l5.4-5.1c2.1-1.9,2.1-3.2,1-4.4
		c-1.1-1.2-2.4-1.3-4.5,0.7l-1.3,1.2L50.4,258z"/>
	<polygon class="st2" points="38.5,263.5 31.3,254 34.2,251.8 36.6,254.9 50.8,244.1 53.3,247.5 39.1,258.2 41.4,261.3 38.5,263.5 	
		"/>
	<polygon class="st2" points="28.9,250.5 23.5,241.7 26.6,239.8 29.9,245 34.1,242.4 31.2,237.6 34.3,235.7 37.3,240.5 41.9,237.6 
		38.7,232.3 41.8,230.4 47.2,239.2 28.9,250.5 	"/>
	<path class="st2" d="M21.7,222l6.4-3c4.3-2.1,7.6-0.8,9.4,3l2.8,5.8L20.9,237l-2.8-5.8C16.3,227.4,17.4,224,21.7,222 M30,222.7
		l-6.5,3.1c-2.4,1.1-2.7,2.4-2,3.8l1,2.1l12.8-6.1l-1-2.1C33.5,222,32.3,221.5,30,222.7L30,222.7z"/>
	<path class="st2" d="M10.4,212l-1.7-6.2c-1-3.5,0.1-6.3,3.5-7.3l0.3-0.1c2-0.6,3.6,0,4.8,1.3c0.2-2.1,1.5-3.8,3.9-4.4l0.6-0.2
		c3.8-1.1,6.6,0.7,7.6,4.2l1.9,6.8L10.4,212L10.4,212z M12.7,207.1l4.7-1.3l-0.5-1.9c-0.4-1.5-1.3-2.1-3-1.7l-0.3,0.1
		c-1.5,0.4-1.8,1.4-1.4,2.9L12.7,207.1L12.7,207.1z M20.8,204.8l5.7-1.6l-0.7-2.4c-0.4-1.5-1.5-2.1-3.5-1.5l-0.3,0.1
		c-1.9,0.5-2.3,1.6-1.9,3L20.8,204.8z"/>
	<polygon class="st2" points="25.8,183.9 26.5,188 18.8,189.3 6.1,196.3 5.4,192.3 13.7,188 4.5,186.7 3.8,182.7 18.1,185.2 
		25.8,183.9 	"/>
	<polygon class="st2" points="24.3,154.2 24.2,160.1 6.2,161.8 24.1,164.1 24,170 2.5,172.3 2.6,168.4 20.4,166.9 2.6,164.5 
		2.7,159 20.4,157.2 2.8,155.2 2.8,151.2 24.3,154.2 	"/>
	<path class="st2" d="M3.7,144.3l0.8-6.3l21.8-1l-0.5,4l-4.4,0.1l-0.6,4.5L25,147l-0.5,4L3.7,144.3z M17.7,141.2l-10.5,0.3l10.1,3.1
		L17.7,141.2L17.7,141.2z"/>
	<path class="st2" d="M6,129.5l1.7-6.6c0.9-3.5,3.4-5.5,6.9-4.6l0.8,0.2c2.9,0.7,4.2,2.8,4.2,5.3l10.6-2.2l-1.2,4.6l-11.4,2
		l10.2,2.6l-1,4L6,129.5L6,129.5z M10.4,126.3l5.6,1.4l0.5-2.2c0.4-1.5-0.2-2.6-2.1-3.1l-0.4-0.1c-1.8-0.5-2.7,0.3-3.1,1.8
		L10.4,126.3L10.4,126.3z"/>
	<path class="st2" d="M22.6,111.2c2.2,0,4-1.8,4-4c0-2.2-1.8-4-4-4c-2.2,0-4,1.8-4,4C18.6,109.4,20.3,111.2,22.6,111.2"/>
</g>
</svg>
