<?xml version="1.0" encoding="utf-8"?>
<!-- Generator: Adobe Illustrator 22.0.1, SVG Export Plug-In . SVG Version: 6.00 Build 0)  -->
<svg version="1.1" id="Layer_1" xmlns="http://www.w3.org/2000/svg" xmlns:xlink="http://www.w3.org/1999/xlink" x="0px" y="0px"
	 viewBox="0 0 500 205" style="enable-background:new 0 0 500 205;" xml:space="preserve">
<style type="text/css">
	.st0{fill:#1D3328;}
	.st1{fill:#FECD51;}
	.st2{fill:#DFD723;}
</style>
<g>
	<rect class="st0" width="500" height="205"/>
	<g id="naitus_x5F_teed_3_">
		<g>
			<path class="st1" d="M143.2,103c0,24.4-0.1,48.7,0.1,73.1c0,3.3-0.5,4.7-4.4,4.7c-29.7-0.2-59.5-0.2-89.2,0
				c-3.4,0-4.3-0.7-4.3-4.2c0.1-49.3,0.1-98.7,0-148c0-3.6,1-4.2,4.3-4.2c29.7,0.1,59.5,0.2,89.2,0c3.9,0,4.4,1.4,4.4,4.7
				C143.2,53.6,143.2,78.3,143.2,103C143.2,103,143.2,103,143.2,103z M68.5,62.7c5.1,1.1,10.2,0.5,15.3,0.4c2.8,0,3.8,1,3.9,3.5
				c-0.1,1.8-0.2,3.7-0.2,5.5c0,26.5,0,52.9,0,79.4c0,12,0,11.9,11.8,12c3.7,0,4.6-1.1,4.6-4.7c-0.1-23.7-0.1-47.4-0.1-71.1
				c0-6.7-0.2-13.4-0.3-20.2c-0.2-3.4,1.3-4.6,4.8-4.4c4.8,0.2,9.6,0.6,14.4-0.3c1.8-4.8,0.5-9.8,0.7-14.7c0.1-1.7-1.6-1.6-2.8-1.6
				c-16.7,0-33.4,0-50,0c-1.6,0-2.8,0.5-2.7,2.2C68.1,53.4,67,58.1,68.5,62.7z"/>
			<path class="st2" d="M252.2,102.4c0-24.7,0-49.3-0.1-74c0-3.1,0.6-4.2,3.9-4.2c30.5,0.1,61,0.1,91.5,0c3.2,0,4.1,0.8,4,4.1
				c-0.1,49.5-0.1,99,0,148.5c0,2.8-0.5,3.9-3.7,3.9c-30.6-0.1-61.3-0.1-91.9,0c-3.6,0-3.8-1.5-3.8-4.3
				C252.3,151.8,252.2,127.1,252.2,102.4z M271.8,48.3l-0.1,0.1c-1.2,1.1-0.7,2.6-0.7,3.9c0,36.1-0.1,72.2,0,108.3
				c0,1.1-0.5,2.5,0.7,3.4c3.5,1.8,7.2,0.3,10.7,0.8c4.1,0.6,5.1-1,5.1-5c-0.2-35.4-0.1-70.7-0.1-106.1c0-1.8,0.4-3.7-0.5-5.4
				C281.8,47.3,276.8,47.2,271.8,48.3z M294.7,63.5c4.2,1.8,8.7,0.8,13,0.8c8.5-0.1,17,0.8,25.5-0.5c1.9-4.7,0.4-9.5,0.7-14.3
				c0.1-1.6-1.3-1.8-2.6-1.8c-11.4,0-22.9,0-34.3,0c-1.9,0-2.8,0.7-2.7,2.7C294.5,54.7,293.9,59.1,294.7,63.5z M313.9,164.8
				c2.5,0,4.9,0,7.4,0c13.4,0,13.3,0,12.9-13.4c-0.1-2.7-1-3.4-3.5-3.4c-7.8,0.1-15.6,0-23.4,0c-13.4,0-13.3,0-12.8,13.3
				c0.1,2.6,0.8,3.5,3.4,3.5C303.1,164.7,308.5,164.8,313.9,164.8z M307.8,114.6c0.5,0,0.9,0,1.4,0c13.5,0,13.4,0,12.6-13.4
				c-0.1-2.3-0.8-3.3-3.2-3.2c-7,0.1-14,0.1-21,0c-2.4,0-3,0.9-3.2,3.2c-0.7,13.4-0.8,13.4,12.5,13.4
				C307.1,114.6,307.4,114.6,307.8,114.6z"/>
			<path class="st2" d="M148.1,102c0-24.5,0.1-49-0.1-73.5c0-3.5,1-4.3,4.3-4.3c30.3,0.1,60.6,0.1,91,0c3.2,0,4.1,0.8,4.1,4
				c-0.1,49.5-0.1,98.9,0,148.4c0,3.3-1,4-4.1,4c-30.3-0.1-60.6-0.1-91,0c-3.5,0-4.3-0.9-4.3-4.3C148.2,151.6,148.1,126.8,148.1,102
				C148.1,102,148.1,102,148.1,102z M229.1,63.7c1.6-4.6,0.4-9.3,0.6-13.9c0.1-2.2-1.7-2.1-3.3-2.1c-11.1,0-22.3,0-33.4,0
				c-1.7,0-3.1,0.3-3,2.4c0.2,4.5-0.7,9.1,0.5,13.6c1.3,1.3,2.9,0.7,4.3,0.7c8.3,0.1,16.5,0.1,24.8,0
				C222.9,64.3,226.1,65.1,229.1,63.7z M183.1,52c0.7-3.1-0.2-4.6-3.6-4.3c-2.4,0.2-4.9,0.3-7.3,0c-4.2-0.5-5.4,1-5.4,5.3
				c0.2,35.8,0.1,71.6,0.1,107.4c0,1.3-0.7,2.8,0.8,3.8c4.4,1.5,9,0.4,13.5,0.6c2.2,0.1,2.2-1.6,2.1-3.2
				C183.2,125,183.1,88.5,183.1,52z M209.6,164.8c5.5,0,11-0.1,16.5,0c2.7,0.1,4-0.7,3.8-3.6c-0.2-2.6-0.3-5.2,0-7.8
				c0.4-4.1-0.8-5.7-5.2-5.4c-7.3,0.4-14.7,0.1-22,0.1c-13.5,0-13.4,0-12.7,13.4c0.1,2.6,1,3.4,3.6,3.4
				C198.9,164.7,204.3,164.8,209.6,164.8z M203.6,114.6c3.5,0,7-0.1,10.5,0c2.2,0.1,3.4-0.4,3.3-3c-0.2-3.5-0.1-7,0-10.5
				c0.1-2.4-0.8-3.2-3.2-3.2c-7,0.1-14,0-21.1,0.1c-1,0-2.6-0.3-2.7,1c-0.7,4.8-1.3,10,0.2,14.5c0.9,2.6,5.2,0.7,8,1.1
				C200.2,114.8,201.9,114.6,203.6,114.6z"/>
			<path class="st2" d="M454.5,102.5c0,24.6-0.1,49.3,0.1,73.9c0,3.5-0.9,4.3-4.3,4.3c-29.9-0.1-59.7-0.1-89.6,0
				c-3.4,0-4.3-0.8-4.3-4.3c0.1-49.3,0.1-98.6,0-147.9c0-3.5,0.9-4.3,4.3-4.3c29.9,0.1,59.7,0.2,89.6,0c4,0,4.4,1.5,4.4,4.8
				C454.5,53.5,454.5,78,454.5,102.5z M396.8,52.9c-0.7,9.5-0.7,9.5,8.2,10.2c8.5,0.7,14.7,7,14.8,15.7c0.2,17.5,0.1,34.9-0.1,52.4
				c-0.1,7.9-5.6,13.7-13.3,15.3c-3.3,0.7-7.8-1.8-9.5,1.7c-1.4,2.8-0.3,6.9-0.4,10.4c0,0.8,0,1.5,0,2.3c-0.1,1.7,0.7,2.2,2.4,2.4
				c20.8,2.3,36.7-10.7,37.2-31.1c0.4-18.4,0.4-36.7,0-55.1c-0.2-9.6-3.4-18.3-11.7-24.3c-6.2-5.6-13.8-6.5-21.7-6.4
				C396.4,46.4,396.4,46.4,396.8,52.9z M390.3,105.3c0-15.8,0-31.5,0-47.3c0-11.6,0-11.4-11.7-11.6c-3.8-0.1-4.8,1-4.8,4.8
				c0.1,33.4,0.1,66.7,0.1,100.1c0,12.1,0,12,12.2,12c3.4,0,4.4-0.8,4.4-4.3C390.2,141.1,390.3,123.2,390.3,105.3z"/>
		</g>
	</g>
</g>
</svg>
